<svg xmlns="http://www.w3.org/2000/svg" aria-label="Wella Professionals logo" data-testid="Wella Professionals" fill="currentColor" viewBox="0 0 120 76"><path d="M32.599 35.002c-1.3-1.48-3.137-2.08-5.047-2.385-2.101-.34-4.235-.231-6.354-.113-.28.014-.572.042-.868.071-.71.07-1.443.142-2.11.018-1.112-.207-1.096-1.282-.776-2.151.057-.153.146-.31.238-.472.156-.274.317-.557.328-.837a1.03 1.03 0 0 0-.2-.607 1.5 1.5 0 0 0-.244-.284l-.059-.052c-.124-.109-.147-.13-.084-.34.068-.24.188-.48.355-.664a1 1 0 0 1 .213-.161c.13-.082.257-.16.288-.339.053-.309-.188-.434-.421-.534-.285-.122-1-.72-.655-1.028.423-.372.706-.916.722-1.48.01-.47-.188-.925-.587-1.191-.466-.314-1.046-.756-1.142-1.349-.04-.227.566-.59.923-.805a6 6 0 0 0 .202-.125c.533-.368 3.681-2.632 4.29-3.726.389-.697.468-1.521.546-2.335.04-.424.08-.845.165-1.244.55-2.633 3.291-4.346 4.071-4.834a3 3 0 0 0 .184-.118c.312-.225.528-.536.744-.848q.126-.185.26-.363c1.724-2.161 4.453-2.829 7.152-2.765 3.95.093 7.33 2.486 10.434 4.684l.304.216.14.098c3.473 2.45 6.95 4.904 10.587 7.133 9.536 5.84 15.668 3.102 22.554.028q.878-.394 1.778-.788c9.309-4.062 11.98-2.988 14.482-.248.448.491.67-.086.36-1.148-.64-2.158-2.995-4.846-7.423-4.703-4.256.137-10.943 3.385-11.186 3.503l-.006.003q-.494.22-1.009.462c-3.75 1.745-8.497 3.953-17.069-.457-2.632-1.352-5.058-3.093-7.468-4.824-.618-.443-1.234-.886-1.853-1.321l-.304-.213c-2.98-2.091-5.952-4.177-9.416-5.423-3.467-1.25-7.26-1.348-10.635.257-1.662.796-3.238 2.108-3.878 3.875a4 4 0 0 0-.084.267c-.058.2-.117.402-.237.571a1.2 1.2 0 0 1-.222.23l-.065.036c-.35.194-1.8 1-2.84 2.06-1.298 1.315-1.877 3.117-2.284 4.872a30 30 0 0 0-.335 1.705c-.114.649-.32 1.07-.797 1.54-.802.793-3.413 2.509-4.257 3.063l-.202.133a5 5 0 0 1-.224.136c-.24.14-.507.296-.64.501-.512.81.213 1.838.766 2.378.078.075.169.149.262.224.28.229.582.474.619.825.041.389-.209.75-.48 1.009-.04.04-.093.08-.147.122-.126.096-.262.199-.282.34-.034.23-.04.467.011.696.117.525.527.863.962 1.145-.706.302-1.884 1.515-.964 2.226.546.417.502.744.348 1.344-.154.594-.274 1.207-.288 1.827-.02 1.023.326 2.02 1.297 2.504.976.485 2.202.426 3.276.373l.173-.008c.791-.035 1.6-.1 2.418-.166 3.69-.298 7.543-.609 10.572 1.852 1.174.953 2.026 2.54 2.443 3.316.105.196.183.34.23.41.18.26.615.227.57-.175-.219-1.938-.804-3.932-2.125-5.428Zm49.193-6.404c2.944-1.3 9.823-4.339 14.735-3.83 4.14.427 6.286 3.271 6.651 6.402.119 1.009-.355 1.304-.696.72-2.247-3.845-6.65-4.62-14.454-1.375-1.209.502-2.439 1.058-3.698 1.626-5.81 2.623-12.237 5.525-20.1 4.762l-.258-.024h-.003c-2.162-.196-6.719-.61-13.905-7.629-.963-.94-2.02-2.059-3.041-3.139-.583-.617-1.154-1.22-1.689-1.771-1.005-1.028-2.124-1.962-3.284-2.818a5.3 5.3 0 0 0-1.627-.817c-.322-.106-.507-.167-.507-.335.012-.38.794-.474 1.096-.5.944-.07 1.915.216 2.777.57 1.59.66 2.895 1.756 4.194 2.85l.212.178c.531.446 1.107.982 1.737 1.57 3.714 3.46 9.327 8.69 18.932 7.64 4.145-.459 7.477-1.823 11.189-3.343l.709-.29a43 43 0 0 0 1.03-.446Zm28.43 17.16s-.805-1.965-2.896-1.965H104.1c-2.072 0-2.9 1.968-2.9 1.968l-8.556 17.896h4.634l1.795-3.808 13.281-.004 1.793 3.808h4.626l-8.551-17.896ZM100.3 56.84s2.767-6.148 4.148-8.761c.2-.376.578-.882 1.251-.895.797.017 1.053.48 1.265.882 1.395 2.601 4.163 8.773 4.163 8.773zm-77.363.99c-.132-.364-.607-1.698-1.22-3.417l-.002-.006v-.002l-.001-.003-.003-.006-.001-.004-.002-.004a3511 3511 0 0 0-3.105-8.689c.028.058-.375-1.558-1.444-1.58-.321-.062-2.363-.042-2.363-.042s-1.154-.171-1.816 1.65c-1.008 2.764-2.668 7.354-3.64 10.04L8.6 57.81c-.44-1.374-4.473-14.003-4.473-14.003H0l6.436 19.851h3.855l5.444-14.287 5.234 14.287h4.033l6.637-19.85h-4.067c.003-.002-1.659 5.023-3.001 9.082zm30.665 17.719c-1.272 0-2.313-.304-3.188-.774l.143-.86a6 6 0 0 0 3.066.8c1.731 0 2.63-.76 2.63-1.666 0-.984-1.212-1.213-2.522-1.46-1.54-.292-3.213-.608-3.213-2.204 0-1.137.944-2.35 3.372-2.35 1.088 0 2.117.194 2.913.544l-.146.823c-.923-.34-1.758-.526-2.763-.526-1.84 0-2.505.821-2.505 1.453 0 .921 1.16 1.132 2.436 1.363 1.565.284 3.306.6 3.306 2.295 0 1.404-1.195 2.562-3.529 2.562m-32.604-4.27c0 2.712 1.244 4.27 4.515 4.27s4.494-1.57 4.494-4.27c0-2.71-1.223-4.234-4.494-4.234s-4.515 1.526-4.515 4.235Zm.96 0c0-2.323 1.005-3.382 3.555-3.382 2.561 0 3.534 1.061 3.534 3.383 0 2.305-.986 3.399-3.534 3.399-2.55 0-3.555-1.094-3.555-3.4M6.213 72.33H3.368v3.045H2.45v-8.188h3.76c2.417 0 3.421 1.005 3.421 2.588.002 1.521-1.014 2.555-3.42 2.555Zm0-4.331H3.368v3.557h2.845c1.619 0 2.484-.536 2.484-1.783 0-1.23-.845-1.775-2.484-1.775Zm10.456 3.741 2.983 3.635H18.5l-2.68-3.445h-2.902v3.445h-.916v-8.188h3.882c2.121 0 3.066.91 3.066 2.304-.002 1.213-.764 2.11-2.28 2.249Zm-.806-3.742h-2.945v3.185h2.82c1.591 0 2.265-.613 2.265-1.648.002-.963-.62-1.537-2.14-1.537m17.69.09v2.734h4.91v.82h-4.91v3.733h-.916v-8.188h6.716l.017.9h-5.817Zm15.085 7.287.034-.847h-6.118V71.48h5.056v-.742h-5.056V68.05h5.849l-.029-.864h-6.727v8.188h6.99Zm10.05-.599c.874.47 1.915.774 3.187.774 2.336 0 3.527-1.158 3.525-2.562 0-1.696-1.739-2.011-3.302-2.295-1.276-.231-2.434-.442-2.434-1.363 0-.632.659-1.453 2.506-1.453 1 0 1.836.186 2.761.526l.143-.823c-.791-.35-1.825-.543-2.914-.543-2.426 0-3.373 1.212-3.373 2.349 0 1.596 1.674 1.912 3.214 2.203 1.31.248 2.522.477 2.522 1.46 0 .907-.898 1.666-2.625 1.666a6.05 6.05 0 0 1-3.072-.798zm9.273-7.589h.924v8.188h-.924zm3.75 4.094c0 2.71 1.245 4.269 4.517 4.269 3.269 0 4.492-1.57 4.492-4.27 0-2.71-1.223-4.234-4.492-4.234-3.272 0-4.517 1.526-4.517 4.235m.96 0c0-2.324 1.01-3.383 3.557-3.383 2.553 0 3.536 1.061 3.536 3.383 0 2.305-.992 3.399-3.536 3.399-2.547 0-3.557-1.094-3.557-3.4Zm18.231 4.094-6.126-6.352-.57-.631-.03.011.02.883v6.091h-.846v-8.189h.875l5.88 6.172.586.634.023-.023-.023-.874-.01-5.897h.823v8.177h-.602zm4.648-2.06h5.669l1.065 2.06h1.052l-4.425-8.188h-1.03l-4.41 8.188h1.003zm.418-.805 2.036-3.88.39-.782h.03l.378.782 1.999 3.88zm15.936 1.974-.03.891h-6.585v-8.188h.911v7.295h5.704zm1.375.292c.881.47 1.918.774 3.194.774 2.332 0 3.525-1.158 3.527-2.562 0-1.696-1.738-2.011-3.301-2.295-1.275-.231-2.433-.442-2.433-1.363 0-.632.655-1.453 2.503-1.453.994 0 1.836.186 2.761.526l.144-.823c-.8-.35-1.827-.543-2.917-.543-2.423 0-3.37 1.212-3.37 2.349 0 1.596 1.674 1.912 3.213 2.203 1.311.248 2.523.477 2.523 1.46 0 .907-.898 1.666-2.631 1.666a6.04 6.04 0 0 1-3.066-.798zM37.602 55.239v3.743s-.14 1.227 1.202 1.227c1.48 0 4.58-.003 7.58-.006h.087l5.648-.004c1.851.086 1.707 3.47 1.707 3.47H38.104c-4.488 0-4.55-4.102-4.55-4.102V47.842s-.157-3.987 4.458-3.987h15.697s-.2 3.468-1.635 3.468c-1.829 0-4.906 0-7.709-.002l-5.563-.002c-1.208 0-1.2 1.083-1.2 1.083v3.361h11.41v3.476zm22.63-11.424s-.005 11.595-.005 15.284c0 .642.516 1.127 1.165 1.127 2.354.002 7.633.002 10.343.002 1.863 0 1.673 3.439 1.673 3.439H60.202c-4.102 0-3.888-4.034-3.888-4.034V43.815zm18.957 15.284V43.812h-3.912v15.82s-.21 4.031 3.892 4.031h11.248s.725-1.38 1.668-3.435H80.362c-.653-.002-1.173-.492-1.173-1.13Zm2.51-34.987C67.098 30.83 61.63 28.37 56.27 25.65c-3.041-1.544-5.914-4.319-8.863-7.166-1.344-1.298-2.703-2.61-4.102-3.83-3.609-3.142-6.628-3.763-8.734-3.537-.434.045-.864.117-1.294.19l-.159.026-.016.003c-.24.046-.668.128-.795-.16-.174-.394.895-1.02 1.215-1.208l.03-.017c.757-.436 1.608-.687 2.478-.79 3.749-.45 7.039 1.828 9.803 4.05l.679.553c3.273 2.671 10.976 8.959 17.569 9.998 4.314.681 6.872.806 18.28-4.323 0 0 6.509-2.987 10.784-2.602 3.583.316 6.028 2.18 6.756 5.794.243 1.205-.252 1.33-.487.988-3.194-4.684-8.17-3.898-17.641.456-.05.022-.074.041-.074.041l-.002-.004Z"></path></svg>